<?xml version="1.0" encoding="UTF-8" standalone="no"?>
<svg width="20px" height="20px" viewBox="0 0 20 20" version="1.1" xmlns="http://www.w3.org/2000/svg" xmlns:xlink="http://www.w3.org/1999/xlink">
    <!-- Generator: sketchtool 40.3 (33839) - http://www.bohemiancoding.com/sketch -->
    <title>x</title>
    <desc>Created with sketchtool.</desc>
    <defs></defs>
    <g id="Desktop-HD" stroke="none" stroke-width="1" fill="none" fill-rule="evenodd">
        <g id="Success" transform="translate(-1124.000000, -943.000000)" fill="#53565A">
            <g id="Group-3" transform="translate(0.000000, 943.000000)">
                <g id="Group-13" transform="translate(631.000000, 0.000000)">
                    <g id="x" transform="translate(493.000000, 0.000000)">
                        <path d="M19.1926335,20 C18.9861948,20 18.7795339,19.9211113 18.6219827,19.7635562 L0.236493431,1.37782951 C-0.0788311436,1.06294149 -0.0788311436,0.551387357 0.236493431,0.236499343 C0.551818005,-0.0788331144 1.0626927,-0.0788331144 1.37801728,0.236499343 L19.7635066,18.622226 C20.0788311,18.9371141 20.0788311,19.4486682 19.7635066,19.7635562 C19.6057332,19.9213336 19.3990722,20 19.1926335,20 L19.1926335,20 Z" id="Shape"></path>
                        <path d="M0.807153214,20 C0.60071221,20 0.394048988,19.9211122 0.236496058,19.7635588 C-0.0788320195,19.4486743 -0.0788320195,18.9371259 0.236496058,18.6222414 L18.6219674,0.236496715 C18.9372955,-0.0788322384 19.4481759,-0.0788322384 19.7635039,0.236496715 C20.078832,0.551381231 20.078832,1.06292968 19.7635039,1.3778142 L1.37781037,19.7635588 C1.22025744,19.9213344 1.01359422,20 0.807153214,20 L0.807153214,20 Z" id="Shape"></path>
                    </g>
                </g>
            </g>
        </g>
    </g>
</svg>